<svg id="Capa_1" enable-background="new 0 0 512 512" height="512" viewBox="0 0 512 512" width="512" xmlns="http://www.w3.org/2000/svg"><g><path d="m110.678 302h169.574l-84.787-84.787z"/><path d="m75.5 407h30v30h-30z"/><path d="m400.622 302-84.472-84.473-38.972 38.973 45.5 45.5z"/><path d="m497 0h-482c-8.284 0-15 6.716-15 15v76h512v-76c0-8.284-6.716-15-15-15zm-161 61c-8.284 0-15-6.716-15-15s6.716-15 15-15 15 6.716 15 15-6.716 15-15 15zm60 0c-8.284 0-15-6.716-15-15s6.716-15 15-15 15 6.716 15 15-6.716 15-15 15zm60 0c-8.284 0-15-6.716-15-15s6.716-15 15-15 15 6.716 15 15-6.716 15-15 15z"/><path d="m0 302h68.252l116.606-116.606c5.854-5.854 15.357-5.857 21.213 0l49.894 49.894 49.578-49.579c5.853-5.854 15.356-5.858 21.213 0l116.291 116.291h68.953v-181h-512z"/><path d="m211 512h286c8.284 0 15-6.716 15-15v-165h-301zm55-136h170c8.284 0 15 6.716 15 15s-6.716 15-15 15h-170c-8.284 0-15-6.716-15-15s6.716-15 15-15zm0 60h170c8.284 0 15 6.716 15 15s-6.716 15-15 15h-170c-8.284 0-15-6.716-15-15s6.716-15 15-15z"/><path d="m0 497c0 8.284 6.716 15 15 15h166v-180h-181zm45.5-105c0-8.284 6.716-15 15-15h60c8.284 0 15 6.716 15 15v60c0 8.284-6.716 15-15 15h-60c-8.284 0-15-6.716-15-15z"/></g></svg>